<?xml version="1.0" encoding="UTF-8" standalone="no"?>
<svg
   xmlns:svg="http://www.w3.org/2000/svg"
   xmlns="http://www.w3.org/2000/svg"
   viewBox="0 0 48 48"
   version="1.1"
   id="svg4">
  <path
     style="fill:#ffff00;fill-opacity:1"
     d="M 21.7,6.8 V 8.1 C 11.8,9.1 10.6,17 9.6,24 8.9,28.7 8.3,33.6 5.1,36.9 4.5,37.6 4.3,38.5 4.6,39.4 5,40.2 5.8,40.8 6.7,40.8 H 21 c 0.1,1.6 1.3,2.8 2.9,2.8 1.5,0 2.8,-1.3 2.9,-2.8 h 14.4 c 0.9,0 1.8,-0.6 2.1,-1.4 0.4,-0.8 0.2,-1.8 -0.5,-2.5 C 39.6,33.6 38.9,28.7 38.3,24 37.3,17 36.2,9.1 26.3,8.1 V 6.8 c 0,-1.3 -1,-2.3 -2.3,-2.3 -1.3,0 -2.3,1 -2.3,2.3 z"
     id="path2-3" />
  <path
     fill="#555"
     d="m21.7 6.8v1.3c-9.9 1-11.1 8.9-12.1 15.9-0.7 4.7-1.3 9.6-4.5 12.9-0.6 0.7-0.8 1.6-0.5 2.5 0.4 0.8 1.2 1.4 2.1 1.4h14.3c0.1 1.6 1.3 2.8 2.9 2.8 1.5 0 2.8-1.3 2.9-2.8h14.4c0.9 0 1.8-0.6 2.1-1.4 0.4-0.8 0.2-1.8-0.5-2.5-3.2-3.3-3.9-8.2-4.5-12.9-1-7-2.1-14.9-12-15.9v-1.3c0-1.3-1-2.3-2.3-2.3s-2.3 1-2.3 2.3zm2.2 5.8c7.8 0 8.7 3.9 9.8 12 0.5 3.8 1.1 7.9 3 11.6h-25.5c1.9-3.7 2.5-7.8 3-11.6 1.1-8.1 2-12 9.7-12z"
     id="path2"
     style="fill:#9b9b00;fill-opacity:1" />
</svg>
