<?xml version="1.0" encoding="UTF-8" standalone="no"?>
<svg
   xmlns:svg="http://www.w3.org/2000/svg"
   xmlns="http://www.w3.org/2000/svg"
   viewBox="0 0 64 64"
   width="32"
   height="32"
   version="1.1"
   xmlns:rdf="http://www.w3.org/1999/02/22-rdf-syntax-ns#" xmlns:cc="http://creativecommons.org/ns#" >
  <metadata> <rdf:RDF > <cc:Work> <cc:license rdf:resource="MPL-2.0" /></cc:Work> </rdf:RDF></metadata>
  <g>
    <rect
       ry="1"
       rx="1"
       y="2"
       x="2"
       height="60"
       width="60"
       style="fill:#ffffff;fill-opacity:1;stroke:#000000;stroke-width:4;stroke-miterlimit:4;stroke-dasharray:none;stroke-opacity:1" />
    <g>
      <path
         style="fill:#000000;fill-opacity:1"
         d="M 19.078125,2 V 2.5 H 14 V 40.972656 C 13.97726,42.63277 15.372472,44 17,44 h 2.023438 L 19,61.994141 22.921875,62 22.945312,44 H 25 c 1.627528,0 3.02274,-1.36723 3,-3.027344 V 2.5 H 23 V 2.0058594 Z"
         />
      <path
         style="fill:#000000;fill-opacity:1"
         d="m 41.078399,1.9999594 v 0.5 H 36.000274 V 40.972615 c -0.02274,1.660114 1.372472,3.027344 3,3.027344 h 2.023438 L 41.000272,61.9941 44.922147,62 44.945587,44 h 2.054688 c 1.627528,0 3.02274,-1.36723 3,-3.027344 V 2.4999594 h -5 V 2.0058188 Z"
         />
    </g>
    <rect
       y="2"
       x="2"
       height="21"
       width="60"
       style="fill:#000000;fill-opacity:1;stroke:none;stroke-width:4;stroke-miterlimit:4;stroke-dasharray:none;stroke-opacity:1"
       />
    <g>
      <circle
         style="fill:#ffffff;fill-opacity:1;stroke:none;stroke-width:4.00000095;stroke-miterlimit:4;stroke-dasharray:none;stroke-opacity:1"
         cx="11.5"
         cy="11"
         r="5.5" />
      <circle
         style="fill:#ffffff;fill-opacity:1;stroke:none;stroke-width:4.00000095;stroke-miterlimit:4;stroke-dasharray:none;stroke-opacity:1"
         cx="32"
         cy="11"
         r="5.5" />
      <circle
         style="fill:#ffffff;fill-opacity:1;stroke:none;stroke-width:4.00000095;stroke-miterlimit:4;stroke-dasharray:none;stroke-opacity:1"
         cx="52.5"
         cy="11"
         r="5.5" />
    </g>
  </g>
</svg>
